<?xml version="1.0" encoding="UTF-8" standalone="no"?>
<svg
   xmlns:dc="http://purl.org/dc/elements/1.1/"
   xmlns:cc="http://creativecommons.org/ns#"
   xmlns:rdf="http://www.w3.org/1999/02/22-rdf-syntax-ns#"
   xmlns:svg="http://www.w3.org/2000/svg"
   xmlns="http://www.w3.org/2000/svg"
   xmlns:sodipodi="http://sodipodi.sourceforge.net/DTD/sodipodi-0.dtd"
   xmlns:inkscape="http://www.inkscape.org/namespaces/inkscape"
   width="825"
   height="430.04922"
   viewBox="0 0 825 430.04922"
   version="1.1"
   id="svg429"
   sodipodi:docname="header_1.svg"
   inkscape:version="0.92.5 (2060ec1f9f, 2020-04-08)">
  <metadata
     id="metadata433">
    <rdf:RDF>
      <cc:Work
         rdf:about="">
        <dc:format>image/svg+xml</dc:format>
        <dc:type
           rdf:resource="http://purl.org/dc/dcmitype/StillImage" />
        <dc:title>Post13_videoanalysis_heading</dc:title>
      </cc:Work>
    </rdf:RDF>
  </metadata>
  <sodipodi:namedview
     pagecolor="#ffffff"
     bordercolor="#666666"
     borderopacity="1"
     objecttolerance="10"
     gridtolerance="10"
     guidetolerance="10"
     inkscape:pageopacity="0"
     inkscape:pageshadow="2"
     inkscape:window-width="1822"
     inkscape:window-height="965"
     id="namedview431"
     showgrid="true"
     fit-margin-top="0"
     fit-margin-left="0"
     fit-margin-right="0"
     fit-margin-bottom="0"
     inkscape:zoom="0.77437216"
     inkscape:cx="276.83357"
     inkscape:cy="202.60917"
     inkscape:window-x="72"
     inkscape:window-y="48"
     inkscape:window-maximized="0"
     inkscape:current-layer="svg429">
    <inkscape:grid
       type="xygrid"
       id="grid1240"
       originx="185"
       originy="1.0492248" />
  </sodipodi:namedview>
  <title
     id="title2">Post13_videoanalysis_heading</title>
  <defs
     id="defs79">
    <linearGradient
       x1="0.90433484"
       y1="9.4187975"
       x2="14.214492"
       y2="9.4187975"
       id="linearGradient-1"
       gradientTransform="scale(0.84463281,1.1839464)"
       gradientUnits="userSpaceOnUse">
      <stop
         stop-color="#7B8BFF"
         offset="4.27%"
         id="stop4" />
      <stop
         stop-color="#6F80FF"
         offset="100%"
         id="stop6" />
    </linearGradient>
    <linearGradient
       x1="11.80543"
       y1="1719.3291"
       x2="111.31064"
       y2="1719.3291"
       id="linearGradient-2"
       gradientTransform="scale(4.4483562,0.22480214)"
       gradientUnits="userSpaceOnUse">
      <stop
         stop-color="#BAB2F0"
         offset="0%"
         id="stop9" />
      <stop
         stop-color="#B1B1DE"
         offset="100%"
         id="stop11" />
    </linearGradient>
    <linearGradient
       x1="4.744647"
       y1="13.106084"
       x2="7.4703946"
       y2="8.7883968"
       id="linearGradient-3"
       gradientTransform="scale(0.73589895,1.3588822)"
       gradientUnits="userSpaceOnUse">
      <stop
         stop-color="#7B8BFF"
         offset="4.27%"
         id="stop14" />
      <stop
         stop-color="#6F80FF"
         offset="100%"
         id="stop16" />
    </linearGradient>
    <linearGradient
       x1="11.588179"
       y1="162.99709"
       x2="324.23624"
       y2="162.99709"
       id="linearGradient-4"
       gradientTransform="scale(1.23333,0.81081301)"
       gradientUnits="userSpaceOnUse">
      <stop
         stop-color="#214F95"
         offset="0%"
         id="stop19" />
      <stop
         stop-color="#0E408C"
         offset="100%"
         id="stop21" />
    </linearGradient>
    <linearGradient
       x1="353.99136"
       y1="86.330872"
       x2="522.7149"
       y2="86.330872"
       id="linearGradient-5"
       gradientTransform="scale(0.76502561,1.3071458)"
       gradientUnits="userSpaceOnUse">
      <stop
         stop-color="#7B8BFF"
         offset="4.27%"
         id="stop24" />
      <stop
         stop-color="#6F80FF"
         offset="100%"
         id="stop26" />
    </linearGradient>
    <linearGradient
       x1="300.25876"
       y1="86.697594"
       x2="469.70444"
       y2="86.697594"
       id="linearGradient-6"
       gradientTransform="scale(0.76830144,1.3015725)"
       gradientUnits="userSpaceOnUse">
      <stop
         stop-color="#7B8BFF"
         offset="4.27%"
         id="stop29" />
      <stop
         stop-color="#6F80FF"
         offset="100%"
         id="stop31" />
    </linearGradient>
    <linearGradient
       x1="40.832813"
       y1="86.697594"
       x2="210.27832"
       y2="86.697594"
       id="linearGradient-7"
       gradientTransform="scale(0.76830144,1.3015725)"
       gradientUnits="userSpaceOnUse">
      <stop
         stop-color="#7B8BFF"
         offset="4.27%"
         id="stop34" />
      <stop
         stop-color="#6F80FF"
         offset="100%"
         id="stop36" />
    </linearGradient>
    <linearGradient
       x1="2.3694897"
       y1="64.522278"
       x2="32.502796"
       y2="64.522278"
       id="linearGradient-8"
       gradientTransform="scale(1.0132003,0.98697165)"
       gradientUnits="userSpaceOnUse">
      <stop
         stop-color="#FFC13C"
         offset="0%"
         id="stop39" />
      <stop
         stop-color="#FFA93C"
         offset="94.72%"
         id="stop41" />
    </linearGradient>
    <linearGradient
       x1="12.504241"
       y1="15.884102"
       x2="42.331749"
       y2="15.884102"
       id="linearGradient-9"
       gradientTransform="scale(1.2013603,0.83238974)"
       gradientUnits="userSpaceOnUse">
      <stop
         stop-color="#7B8BFF"
         offset="4.27%"
         id="stop44" />
      <stop
         stop-color="#6F80FF"
         offset="100%"
         id="stop46" />
    </linearGradient>
    <linearGradient
       x1="0.89810926"
       y1="32.626091"
       x2="12.010811"
       y2="32.626091"
       id="linearGradient-10"
       gradientTransform="scale(1.4896098,0.67131675)"
       gradientUnits="userSpaceOnUse">
      <stop
         stop-color="#214F95"
         offset="3.27%"
         id="stop49" />
      <stop
         stop-color="#0E408C"
         offset="100%"
         id="stop51" />
    </linearGradient>
    <linearGradient
       x1="15.619358"
       y1="113.88196"
       x2="52.806438"
       y2="113.88196"
       id="linearGradient-11"
       gradientTransform="scale(1.2902643,0.77503498)"
       gradientUnits="userSpaceOnUse">
      <stop
         stop-color="#7B8BFF"
         offset="4.27%"
         id="stop54" />
      <stop
         stop-color="#6F80FF"
         offset="100%"
         id="stop56" />
    </linearGradient>
    <linearGradient
       x1="12.08388"
       y1="168.65347"
       x2="0.43372568"
       y2="168.65347"
       id="linearGradient-12"
       gradientTransform="scale(0.98886032,1.0112652)"
       gradientUnits="userSpaceOnUse">
      <stop
         stop-color="#214F95"
         offset="3.27%"
         id="stop59" />
      <stop
         stop-color="#0E408C"
         offset="100%"
         id="stop61" />
    </linearGradient>
    <linearGradient
       x1="1.2864944"
       y1="6.3933268"
       x2="13.268928"
       y2="6.3933268"
       id="linearGradient-13"
       gradientTransform="scale(0.93572339,1.0686919)"
       gradientUnits="userSpaceOnUse">
      <stop
         stop-color="#586CFF"
         offset="4.27%"
         id="stop64" />
      <stop
         stop-color="#6F80FF"
         offset="100%"
         id="stop66" />
    </linearGradient>
    <linearGradient
       x1="1.4297307"
       y1="6.6860399"
       x2="13.412019"
       y2="6.6860399"
       id="linearGradient-14"
       gradientTransform="scale(0.93572339,1.0686919)"
       gradientUnits="userSpaceOnUse">
      <stop
         stop-color="#586CFF"
         offset="4.27%"
         id="stop69" />
      <stop
         stop-color="#6F80FF"
         offset="100%"
         id="stop71" />
    </linearGradient>
    <linearGradient
       x1="42.094723"
       y1="229.11417"
       x2="27.247391"
       y2="229.11417"
       id="linearGradient-15"
       gradientTransform="scale(1.3443024,0.74388024)"
       gradientUnits="userSpaceOnUse">
      <stop
         stop-color="#214F95"
         offset="3.27%"
         id="stop74" />
      <stop
         stop-color="#0E408C"
         offset="100%"
         id="stop76" />
    </linearGradient>
  </defs>
  <g
     id="Post13_videoanalysis_heading"
     transform="translate(186.81721,-0.539842)"
     style="fill:none;fill-rule:evenodd;stroke:none;stroke-width:1">
    <g
       id="g426"
       transform="translate(0,16)">
      <g
         transform="translate(118.98529,28.736717)"
         id="Path"
         style="fill-rule:nonzero">
        <path
           d="m 12.240441,5.6241861 c 0,0 4.718382,2.2989374 8.110147,-5.02208345 0,0 3.282353,1.23157355 2.160883,3.88629885 C 21.39,7.1431269 19.899265,9.2641703 19.899265,9.2641703 l 7.426323,3.7494577 c 1.572794,0.79368 2.270294,2.682093 1.545441,4.296823 -1.791617,4.077877 -5.361176,10.892584 -8.903382,10.08522 C 14.948382,26.259886 11.529265,23.878844 10.845441,23.098847 10.161618,22.31885 6.975,20.047281 5.3475,19.226232"
           id="path81"
           inkscape:connector-curvature="0"
           style="fill:#c5c4ff" />
        <path
           d="M 3.5285294,18.788339 1.9557353,17.994659 C 0.88897059,17.460977 0.465,16.160982 0.99838235,15.093619 L 6.3458823,4.4610332 C 6.8792647,3.3936695 8.1785294,2.9694608 9.2452941,3.5031427 l 1.5727939,0.7936807 c 1.066765,0.5336819 1.490736,1.8336763 0.957353,2.9010401 L 6.4279412,17.830449 c -0.5470589,1.067364 -1.8326471,1.505256 -2.8994118,0.95789 z"
           id="path83"
           style="fill:url(#linearGradient-1)"
           inkscape:connector-curvature="0" />
      </g>
      <path
         d="m 90.647647,375.05521 c 0,0 -54.965735,-78.15018 -37.610294,-143.4099 0.752206,-2.83262 1.641176,-5.65156 2.680588,-8.42944 1.873677,-4.2284 2.803677,-8.36101 3.008824,-12.39784 0.205147,-4.03682 -0.328236,-8.00523 -1.367647,-11.89153 -3.309706,-9.42838 -7.727206,-18.97991 -13.498677,-27.47777 -1.928382,-2.83262 -3.993529,-5.54208 -6.23647,-8.10102 C 14.6475,135.24046 13.361912,90.534344 45.282794,67.54497 61.243235,56.8987 79.856912,62.221835 95.215588,70.144958 c 3.077206,1.587362 6.017642,3.270512 8.780292,4.953663 11.1053,4.638927 23.25,8.675752 35.73662,11.43995 4.15765,0.916839 8.34265,1.683151 12.51397,2.17578 39.85324,4.392613 75.60353,-17.324135 105.34985,-41.093505 2.65324,-1.518941 5.40221,-2.873672 8.26059,-4.023141 14.29191,-5.774711 31.49691,-6.541024 54.91103,3.010514 74.93338,30.570393 52.28515,107.201641 140.86765,100.537461 88.5825,-6.66419 89.25264,83.30911 65.93426,125.29208 -23.31838,41.98298 -48.61985,84.63648 -31.97559,103.9585 16.65795,19.32202 -131.21205,-5.33682 -142.53617,-3.99577 -11.31044,1.32736 -262.410443,2.65472 -262.410443,2.65472 z"
         id="path86"
         inkscape:connector-curvature="0"
         style="fill:#a5a8ed;fill-rule:nonzero" />
      <ellipse
         id="Oval"
         cx="266.86896"
         cy="386.50885"
         rx="266.71854"
         ry="13.478889"
         style="fill:url(#linearGradient-2);fill-rule:nonzero" />
      <g
         transform="translate(339.17647,31.473547)"
         id="g93"
         style="fill-rule:nonzero">
        <path
           d="m 5.1970588,8.3199639 c 0,0 4.1576471,-1.081048 2.3660294,-7.44417823 0,0 2.6942648,-0.98525888 3.4191178,1.25894193 0.724853,2.2578849 0.916323,4.3652442 0.916323,4.3652442 l 6.619412,-1.6420982 c 1.408677,-0.3421038 2.83103,0.4652612 3.255,1.8473604 1.053088,3.489459 2.461765,9.633642 -0.164118,11.015742 -3.72,1.970517 -7.111764,2.312621 -7.959705,2.203148 -0.834265,-0.123157 -4.0345592,0.177894 -5.4842651,0.533682"
           id="path89"
           inkscape:connector-curvature="0"
           style="fill:#c5c4ff" />
        <path
           d="M 6.51,21.224118 5.6620588,21.429381 C 4.5542647,21.703064 3.4464706,21.03254 3.1729412,19.924124 L 0.97102941,11.015742 C 0.6975,9.9073254 1.3676471,8.7989091 2.4754412,8.5252261 L 3.3233824,8.3199639 C 4.4311765,8.0462808 5.5389706,8.7168042 5.8125,9.8252205 L 8.0144118,18.733603 C 8.2879412,19.828335 7.6177941,20.950435 6.51,21.224118 Z"
           id="path91"
           style="fill:url(#linearGradient-3)"
           inkscape:connector-curvature="0" />
      </g>
      <g
         transform="translate(444.48529,199.78861)"
         id="g103"
         style="fill-rule:nonzero">
        <g
           id="g99">
          <path
             d="M 52.640735,123.71841 C 18.490588,131.80574 14.797941,154.32986 6.2911765,149.37619 5.8535294,149.11619 5.4842647,148.8562 5.1560294,148.54146 -0.41029412,143.24569 12.144706,130.65627 5.9902941,97.67747 2.1061765,76.80914 -6.1817647,38.43878 8.1511765,32.007229 20.418971,26.519885 21.759265,58.814481 39.497647,52.246089 52.380882,47.47032 30.252353,26.43778 41.220882,19.540968 53.365588,11.891527 57.714706,37.275627 67.507059,28.271456 77.285735,19.280969 76.725,-3.6126159 87.843971,0.62947095 88.021765,0.6978917 88.185882,0.76631246 88.336324,0.84841737 98.716765,5.3778714 91.769118,21.648327 86.681471,32.07565 c -5.15603,10.605217 -7.426324,13.465205 -4.048236,14.792567 3.378089,1.327363 20.159115,-4.41998 21.130145,6.801023 0.95736,11.234689 -28.679557,14.696779 -35.654557,28.05251 -6.988676,13.369416 20.309559,2.353674 16.74,16.776769 C 82.77,106.79112 69.613235,119.72264 52.640735,123.71841 Z"
             id="path95"
             inkscape:connector-curvature="0"
             style="fill:#b9b8f3" />
          <polygon
             points="64.963235,48.838735 53.652794,34.333535 63.609265,51.000831 41.754265,86.100679 16.384412,56.419755 40.468677,88.153301 13.102059,132.46258 17.314412,134.9531 34.464706,106.2848 71.828823,99.647988 35.859706,103.76692 55.143529,69.173384 55.157206,69.214436 83.0025,59.088164 56.771029,66.231291 79.296177,25.821993 "
             id="polygon97"
             style="fill:#a5a8ed" />
        </g>
        <path
           d="M 92.945294,82.241748 C 97.4175,80.750175 117.24838,73.620733 112.10603,66.614447 107.52441,60.374474 97.622647,73.880732 93.6975,79.751232 95.926765,71.677583 95.325,66.600763 95.174559,65.629189 98.798823,60.114476 107.79794,45.13033 100.18015,42.858761 c -7.699856,-2.298937 -7.139121,15.791511 -6.701473,22.318851 -0.109412,0.177894 -0.150442,0.39684 -0.109412,0.615786 0.01368,0.06842 0.875294,5.158925 -1.490736,13.656783 -0.779558,-6.69155 -3.473823,-23.605161 -10.708676,-20.498858 -8.014412,3.434722 6.824559,19.116759 10.120588,22.455692 -0.984706,3.092618 -2.379706,6.568392 -4.37647,10.372586 -0.656471,1.245258 -1.381324,2.558936 -2.201912,3.913668 C 83.9325,89.480664 81.019412,71.458637 73.606765,74.783886 c -7.850294,3.516826 6.728823,18.596761 10.339412,22.15464 -2.872059,4.611554 -6.701471,9.811534 -11.816471,15.449404 -0.656471,-5.58313 -3.4875,-24.905152 -11.132647,-21.497799 -7.94603,3.544196 7.029706,18.952549 10.42147,22.291479 -3.569558,3.87262 -7.754558,7.93681 -12.623382,12.16521 -0.08206,-5.55576 -0.943676,-25.19252 -8.917059,-22.55148 -8.274265,2.73683 5.115,19.58202 8.1375,23.23569 -3.856765,3.31157 -8.151176,6.70523 -12.924264,10.18101 0.19147,-5.06314 0.492353,-25.58936 -7.781912,-23.30411 -8.534118,2.35367 4.554264,20.38939 7.098088,23.78305 -4.335441,3.13368 -9.040147,6.3084 -14.1825,9.53786 0.191471,-5.14524 0.465,-25.52094 -7.781912,-23.24937 -8.465735,2.33999 4.362794,20.12938 7.043383,23.70094 -3.350736,2.09368 -6.865589,4.18736 -10.585589,6.3084 -0.396617,0.21894 -0.547059,0.68421 -0.410294,1.09473 0.01368,0.0411 0.04103,0.0958 0.06838,0.13684 0.246176,0.43789 0.806911,0.58842 1.244558,0.34211 3.72,-2.12105 7.234853,-4.22841 10.599265,-6.32208 3.172941,2.39472 21.116471,15.46309 24.015882,7.03365 2.776324,-8.07365 -17.86147,-7.78628 -23.126911,-7.58102 5.238088,-3.28419 10.011176,-6.52734 14.415,-9.71575 4.513235,3.32525 20.583088,14.43678 23.304706,6.51366 2.571176,-7.49891 -15.030442,-7.78628 -21.772942,-7.63576 4.308089,-3.17472 8.219559,-6.28102 11.761765,-9.3189 4.636324,1.40947 24.727059,6.9926 24.603971,-1.65578 -0.123088,-7.84102 -16.370736,-2.35368 -22.82603,0.12315 4.595294,-4.02314 8.547794,-7.89575 11.966912,-11.60416 4.950882,0.71158 25.410882,3.18841 24.002206,-5.29576 -1.258235,-7.58102 -15.960441,-0.19158 -22.196912,3.31156 4.663677,-5.25471 8.219559,-10.12627 10.941177,-14.491515 5.30647,-0.533682 25.192065,-3.051566 21.841325,-10.851532 -2.89941,-6.75997 -14.483384,2.73683 -20.063384,7.854703 0.492353,-0.862102 0.943676,-1.710519 1.367647,-2.517884 1.928382,-3.694721 3.309706,-7.115758 4.308088,-10.167324 z"
           id="path101"
           inkscape:connector-curvature="0"
           style="fill:#a9acf2" />
      </g>
      <g
         transform="translate(0.945763,214.84117)"
         id="g113"
         style="fill-rule:nonzero">
        <g
           transform="translate(8.627767)"
           id="g109">
          <path
             d="m 51.683382,123.66367 c 34.150147,8.08734 37.842795,30.61145 46.349559,25.65779 0.437647,-0.26 0.806912,-0.52 1.135147,-0.83474 5.566322,-5.29576 -6.988676,-17.88518 -0.834265,-50.863986 C 102.21794,76.754403 110.50588,38.384044 96.172941,31.952493 83.905147,26.465148 82.564853,58.759745 64.826471,52.191352 51.943235,47.415583 74.071765,26.383043 63.103235,19.486231 50.958529,11.836791 46.609412,37.220891 36.817059,28.216719 27.038382,19.226232 27.599118,-3.6673525 16.480147,0.57473434 16.302353,0.6431551 16.138235,0.71157586 15.987794,0.79368076 5.6073529,5.3231348 12.555,21.59359 17.642647,32.020913 22.798676,42.626131 25.068971,45.486118 21.690882,46.813481 18.312794,48.140844 1.5317647,42.3935 0.56073529,53.614504 -0.39661765,64.849192 29.240294,68.311282 36.215294,81.667014 c 6.988677,13.369415 -20.309559,2.353674 -16.74,16.776769 2.078824,8.292597 15.249265,21.224117 32.208088,25.219887 z"
             id="path105"
             inkscape:connector-curvature="0"
             style="fill:#a6a7f5" />
          <polygon
             points="39.360882,48.783999 50.685,34.278798 40.714853,50.946094 62.569853,86.045942 87.939706,56.365018 63.855441,88.098565 91.222059,132.40785 87.009706,134.89836 69.873088,106.23006 32.495294,99.579567 68.464412,103.71218 49.180588,69.104963 49.166912,69.146015 21.321618,59.033428 47.553088,66.176555 25.041618,25.767256 "
             id="polygon107"
             style="fill:#c0c1fd" />
        </g>
        <path
           d="M 20.00659,82.173327 C 15.534384,80.681755 -4.296498,73.552312 0.84585493,66.546027 5.4274726,60.306054 15.329237,73.812311 19.254384,79.682812 17.02512,71.609163 17.626884,66.532342 17.777325,65.560768 14.153061,60.046055 5.1539432,45.061909 12.771737,42.79034 c 7.699853,-2.298937 7.139118,15.791511 6.701471,22.318851 0.109412,0.177894 0.150441,0.39684 0.109412,0.615787 -0.01368,0.06842 -0.875295,5.158925 1.490735,13.656782 0.779559,-6.691549 3.473823,-23.60516 10.708676,-20.498858 8.014412,3.434722 -6.824558,19.116759 -10.120588,22.455692 0.984706,3.092618 2.379706,6.568393 4.376471,10.372586 0.65647,1.245258 1.381323,2.558937 2.201911,3.913668 0.779559,-6.212605 3.692648,-24.234632 11.105295,-20.909383 7.850294,3.516827 -6.728824,18.596761 -10.339412,22.15464 2.872059,4.611555 6.70147,9.811535 11.81647,15.449405 0.656471,-5.58313 3.4875,-24.905153 11.132647,-21.497799 7.94603,3.544195 -7.029705,18.952549 -10.42147,22.291479 3.569559,3.87262 7.754559,7.93681 12.623382,12.16521 0.08206,-5.55576 0.943677,-25.19252 8.917059,-22.55148 8.274265,2.73683 -5.115,19.58202 -8.1375,23.23569 3.856765,3.31157 8.151177,6.70523 12.924265,10.18101 -0.191471,-5.06314 -0.492353,-25.58936 7.781912,-23.30411 8.534117,2.35367 -4.554265,20.38938 -7.098089,23.78305 4.335441,3.13367 9.040147,6.3084 14.1825,9.53786 -0.19147,-5.14524 -0.465,-25.52094 7.781912,-23.24937 8.465735,2.33999 -4.362794,20.12938 -7.043382,23.70094 3.350735,2.09368 6.865588,4.18735 10.585588,6.3084 0.396618,0.21894 0.547059,0.68421 0.410294,1.09473 -0.01368,0.0411 -0.04103,0.0958 -0.06838,0.13684 -0.246177,0.43789 -0.806912,0.58842 -1.244559,0.34211 -3.72,-2.12105 -7.234853,-4.22841 -10.599265,-6.32208 -3.172941,2.39472 -21.11647,15.46309 -24.015882,7.03365 -2.776324,-8.07365 17.86147,-7.78628 23.126912,-7.58102 -5.238089,-3.28419 -10.011177,-6.52734 -14.415,-9.71575 -4.513236,3.32525 -20.583089,14.43678 -23.304706,6.51366 -2.571177,-7.49891 15.030441,-7.78628 21.772941,-7.63576 -4.308088,-3.17472 -8.219559,-6.28102 -11.761765,-9.3189 -4.636323,1.40946 -24.727059,6.9926 -24.60397,-1.65579 0.123088,-7.84101 16.370735,-2.35367 22.826029,0.12316 -4.595294,-4.02314 -8.547794,-7.89575 -11.966912,-11.60416 -4.950882,0.71158 -25.410882,3.18841 -24.002206,-5.29576 1.258236,-7.58102 15.960442,-0.19158 22.196912,3.31156 C 33.737767,107.09217 30.181884,102.22061 27.460267,97.855364 22.153796,97.321682 2.2682079,94.803799 5.6189432,87.003833 8.5183549,80.243862 20.102325,89.740663 25.682325,94.858535 25.189973,93.996434 24.738649,93.148016 24.314678,92.340651 22.386296,88.645931 21.004973,85.238577 20.00659,82.173327 Z"
           id="path111"
           inkscape:connector-curvature="0"
           style="fill:#afb0f2" />
      </g>
      <g
         transform="translate(82.058824,117.6837)"
         id="g196">
        <g
           id="g135"
           style="fill-rule:nonzero">
          <g
             id="g125">
            <path
               d="M 399.88632,8.2652273 V 256.0852 c 0,3.94104 -3.17294,7.11576 -7.11176,7.11576 H 8.3836765 c -3.9251471,0 -7.1254412,-3.17472 -7.1254412,-7.11576 V 8.2652273 c 0,-3.9273514 3.1866176,-7.1294428 7.1254412,-7.1294428 H 392.78823 c 1.61383,0 3.09089,0.5336819 4.28074,1.4368359 1.70956,1.2863102 2.81735,3.3663012 2.81735,5.6926069 z"
               id="path115"
               style="fill:url(#linearGradient-4)"
               inkscape:connector-curvature="0" />
            <path
               d="M 399.88632,8.2652273 V 54.818709 C 373.34029,109.54163 335.62059,187.3634 318.38823,223.12008 H 270.80779 L 379.83662,2.5726204 h 17.205 c 1.73691,1.2863102 2.8447,3.3663012 2.8447,5.6926069 z"
               id="path117"
               style="opacity:0.1;fill:url(#linearGradient-5)"
               inkscape:connector-curvature="0" />
            <path
               d="M 360.88103,2.5726204 C 338.26015,48.783999 274.63721,178.7287 253.05573,223.12008 H 230.69471 L 339.72353,2.5726204 Z"
               id="path119"
               style="opacity:0.1;fill:url(#linearGradient-6)"
               inkscape:connector-curvature="0" />
            <path
               d="M 161.56015,2.5726204 C 138.93926,48.783999 75.316323,178.7287 53.734853,223.12008 H 31.373823 L 140.40265,2.5726204 Z"
               id="path121"
               style="opacity:0.1;fill:url(#linearGradient-7)"
               inkscape:connector-curvature="0" />
            <path
               d="M 399.9,21.730432 H 1.2582353 V 8.7578567 c 0,-4.2147185 3.4191176,-7.6357563 7.6314706,-7.6357563 H 392.26853 c 4.21235,0 7.63147,3.4210378 7.63147,7.6357563 z"
               id="path123"
               inkscape:connector-curvature="0"
               style="fill:#da3685" />
          </g>
          <g
             transform="translate(320.02941,6.842076)"
             id="g133"
             style="fill:#f9fbfc">
            <ellipse
               cx="4.3627939"
               cy="3.8999832"
               rx="3.2276471"
               ry="3.2294598"
               id="ellipse127" />
            <ellipse
               cx="27.01103"
               cy="3.8999832"
               rx="3.2276471"
               ry="3.2294598"
               id="ellipse129" />
            <ellipse
               cx="49.659264"
               cy="3.8999832"
               rx="3.2276471"
               ry="3.2294598"
               id="ellipse131" />
          </g>
        </g>
        <g
           transform="translate(15.044118,93.052227)"
           id="g183">
          <g
             transform="translate(0,128.63102)"
             id="g142"
             style="fill-rule:nonzero">
            <rect
               id="Rectangle"
               x="0.2325"
               y="1.5599933"
               width="370.6597"
               height="2.5452521"
               style="fill:#ffffff" />
            <rect
               id="rect138"
               x="0.17779411"
               y="1.5599933"
               width="122.1172"
               height="2.5452521"
               style="fill:#da3685" />
            <ellipse
               id="ellipse140"
               cx="122.86942"
               cy="2.8599875"
               rx="2.8310294"
               ry="2.8326192"
               style="fill:#da3685" />
          </g>
          <g
             transform="translate(151.80882)"
             id="g148"
             style="fill-rule:nonzero">
            <ellipse
               id="ellipse144"
               cx="33.808235"
               cy="34.141956"
               rx="33.575737"
               ry="33.594589"
               style="fill:#da3685" />
            <polygon
               id="polygon146"
               points="22.278971,17.40624 22.278971,50.877674 51.245735,34.141957 "
               style="fill:#ffffff" />
          </g>
          <g
             transform="translate(0,140.94676)"
             id="g168">
            <g
               transform="translate(23.25)"
               id="g154"
               style="stroke:#f9fbfc;stroke-width:1.20850003">
              <line
                 x1="1.2719117"
                 y1="11.166267"
                 x2="1.2719117"
                 y2="0.38315624"
                 id="line150" />
              <line
                 x1="7.617794"
                 y1="0.38315624"
                 x2="7.617794"
                 y2="11.166267"
                 id="line152" />
            </g>
            <g
               transform="translate(43.764706)"
               id="g160">
              <line
                 x1="10.243676"
                 y1="1.2315736"
                 x2="10.243676"
                 y2="11.166267"
                 id="line156"
                 style="stroke:#f9fbfc;stroke-width:0.7913" />
              <polygon
                 points="0.34191176,10.331534 0.34191176,2.0663068 7.4947059,6.1989204 "
                 id="polygon158"
                 style="fill:#f9fbfc;fill-rule:nonzero" />
            </g>
            <g
               id="g166">
              <line
                 x1="1.395"
                 y1="1.2315736"
                 x2="1.395"
                 y2="11.166267"
                 id="line162"
                 style="stroke:#f9fbfc;stroke-width:0.7913" />
              <polygon
                 points="11.296765,10.331534 11.296765,2.0663068 4.1439706,6.1989204 "
                 id="polygon164"
                 style="fill:#f9fbfc;fill-rule:nonzero" />
            </g>
          </g>
          <g
             transform="translate(304.98529,139.57834)"
             id="g181">
            <path
               d="M 14.6475,8.0462808 C 14.565441,7.3210208 14.346618,6.609445 14.032059,5.9662899 13.936324,5.7610276 14.004706,5.528397 14.209853,5.4189238 l 0.08206,-0.054737 C 14.497059,5.2410299 14.579118,4.981031 14.442353,4.7757687 14.141471,4.3105076 13.799559,3.8726148 13.402941,3.4757744 13.238824,3.3115646 12.951618,3.3115646 12.7875,3.4894585 l -0.06838,0.082105 C 12.568677,3.7357732 12.3225,3.7631415 12.144706,3.6263 11.583971,3.1884072 10.941176,2.8326193 10.243676,2.5726204 10.038529,2.5041997 9.9154412,2.2715691 9.9838235,2.0663068 L 10.134265,1.5599932 h -0.01368 C 9.4367647,1.3684151 8.7392647,1.272626 8.0554412,1.272626 c 0,0 0,0 0,0 -0.2325,0 -0.4239706,0.2052623 -0.4102941,0.4378929 v 0.095789 C 7.6588235,2.0252544 7.4947059,2.2168325 7.2758823,2.2442008 6.5510294,2.3263057 5.8398529,2.5452521 5.1970588,2.8599876 4.9919118,2.9557766 4.7594118,2.8873559 4.65,2.6820936 L 4.5952941,2.5999887 C 4.4722059,2.3947264 4.2123529,2.3126215 4.0072059,2.449463 3.5422059,2.7505144 3.1045588,3.0926181 2.7079412,3.4894585 2.5438235,3.6536683 2.5438235,3.9410355 2.7216177,4.1052453 l 0.082059,0.068421 C 2.9677941,4.3241917 2.9951471,4.5705065 2.8583823,4.7484004 2.4207353,5.3094506 2.0514706,5.9526057 1.8052941,6.6504974 1.7369118,6.8557597 1.5044118,6.978917 1.2992647,6.9104963 L 0.79323529,6.7599706 v 0.013684 C 0.60176471,7.4578623 0.50602941,8.155754 0.50602941,8.8399616 c 0,0 0,0 0,0 0,0.2326306 0.20514706,0.4242087 0.43764706,0.4105245 H 1.0530882 C 1.2719118,9.236802 1.4633823,9.4010118 1.4907353,9.6199582 1.5727941,10.345218 1.7779412,11.056794 2.0925,11.713633 c 0.095735,0.205263 0.027353,0.437893 -0.1777941,0.547366 l -0.082059,0.05474 C 1.6275,12.438893 1.5454412,12.698892 1.6822059,12.904155 1.9830882,13.369416 2.325,13.807308 2.7216177,14.204149 c 0.1641176,0.16421 0.4513235,0.16421 0.6154411,-0.01368 l 0.068382,-0.08211 c 0.1504412,-0.16421 0.3966176,-0.191578 0.5744117,-0.05474 0.5607353,0.437893 1.2035294,0.807365 1.9010294,1.05368 0.2051471,0.06842 0.3282353,0.301051 0.259853,0.506313 L 5.9902941,16.11993 h 0.027353 c 0.6838235,0.191578 1.3813235,0.287367 2.065147,0.287367 0,0 0.013677,0 0.013677,0 0.2325,0 0.4239706,-0.205262 0.4102941,-0.451577 v -0.09579 c -0.013676,-0.218946 0.1504412,-0.410524 0.3692647,-0.437893 0.7248529,-0.08211 1.4360291,-0.301051 2.0788231,-0.615786 0.205147,-0.09579 0.437647,-0.02737 0.54706,0.177893 l 0.05471,0.08211 c 0.123087,0.205263 0.382941,0.287368 0.588088,0.150526 0.465,-0.301051 0.902647,-0.643155 1.285588,-1.039995 0.164118,-0.16421 0.164118,-0.451578 -0.01368,-0.615787 l -0.08206,-0.06842 c -0.164118,-0.150526 -0.191471,-0.39684 -0.05471,-0.574734 0.437647,-0.561051 0.793234,-1.204206 1.039412,-1.902097 0.06838,-0.205263 0.300882,-0.32842 0.506029,-0.259999 l 0.506029,0.150525 v 0 c 0.191471,-0.684207 0.287205,-1.3820988 0.287205,-2.0663064 0,0 0,-0.013684 0,-0.013684 0,-0.2326305 -0.205147,-0.4242086 -0.451323,-0.4105245 h -0.09573 C 14.866324,8.4294371 14.661177,8.2652273 14.6475,8.0462808 Z M 6.4142647,14.655726 v 0 l 0.041029,-0.16421 z M 11.912206,9.9346937 c -0.492353,1.7652553 -2.1061766,2.9284083 -3.8567648,2.9284083 -0.3555883,0 -0.724853,-0.05474 -1.0941177,-0.150526 -1.7642647,-0.492629 -2.9267647,-2.107359 -2.9267647,-3.8589302 0,-0.355788 0.054706,-0.7252601 0.1504412,-1.0947321 0.4923529,-1.7652555 2.1061765,-2.9284084 3.8567647,-2.9284084 0.3555882,0 0.724853,0.054737 1.0941176,0.1505257 1.7642647,0.4926294 2.9267647,2.1073593 2.9267647,3.8589306 0,0.3557879 -0.04103,0.72526 -0.150441,1.0947321 z"
               id="Shape"
               inkscape:connector-curvature="0"
               style="fill:#ffffff;fill-rule:nonzero" />
            <g
               transform="translate(27.352941,2.73683)"
               id="g179"
               style="stroke:#ffffff;stroke-width:0.57190001">
              <polyline
                 points="0.218823529 4.18735023 0.218823529 0.232630568 4.17132353 0.232630568"
                 id="polyline171" />
              <polyline
                 points="4.17132353 11.9736322 0.218823529 11.9736322 0.218823529 8.00522838"
                 id="polyline173" />
              <polyline
                 points="7.98705882 0.232630568 11.9532353 0.232630568 11.9532353 4.18735023"
                 id="polyline175" />
              <polyline
                 points="11.9532353 8.00522838 11.9532353 11.9736322 7.98705882 11.9736322"
                 id="polyline177" />
            </g>
          </g>
        </g>
        <g
           transform="translate(14.622233,35.578793)"
           id="g194"
           style="fill-rule:nonzero">
          <path
             d="M 60.721443,26.027255 H 5.4548255 c -2.8583823,0 -5.16970586,-2.312621 -5.16970586,-5.172609 V 5.5557653 c 0,-2.8599875 2.31132356,-5.17260907 5.16970586,-5.17260907 H 60.721443 c 2.858382,0 5.169766,2.31262157 5.169766,5.17260907 V 20.854646 c 0.01362,2.859988 -2.311384,5.172609 -5.169766,5.172609 z"
             id="path185"
             inkscape:connector-curvature="0"
             style="fill:#f9fbfc" />
          <g
             transform="translate(6.838235,5.150921)"
             id="g192"
             style="fill:#da3685">
            <text
               id="LIVE"
               font-size="13.1507"
               font-weight="normal"
               style="font-weight:normal;font-size:13.15069962px;font-family:Helvetica">
              <tspan
                 x="16.600363"
                 y="13.179126"
                 id="tspan187">LIVE</tspan>
            </text>
            <path
               d="m 11.062179,8.437441 c 0,2.983145 -2.4207358,5.391556 -5.38853,5.391556 -2.9814705,0 -5.38852936,-2.422095 -5.38852936,-5.391556 0,-2.9831449 2.42073526,-5.3915555 5.38852936,-5.3915555 2.9814706,0 5.38853,2.4084106 5.38853,5.3915555 z"
               id="path190"
               inkscape:connector-curvature="0" />
          </g>
        </g>
      </g>
      <g
         transform="translate(310.44197,76.608654)"
         id="g202"
         style="fill:#c5c4ff;fill-rule:nonzero">
        <path
           d="M 23.781296,13.697835 40.27512,4.1736661 c 1.025735,-0.5884185 2.311323,0.1505256 2.311323,1.3273626 V 24.549367 c 0,1.190521 -1.285588,1.929465 -2.311323,1.327363 L 23.781296,16.35256 c -1.025735,-0.574734 -1.025735,-2.052622 0,-2.654725 z"
           id="path198"
           inkscape:connector-curvature="0" />
        <path
           d="M 25.62762,29.845133 H 4.2102667 c -2.2702941,0 -4.10294118,-1.833676 -4.10294118,-4.105245 V 4.3105076 c 0,-2.2715691 1.83264708,-4.10524533 4.10294118,-4.10524533 H 25.62762 c 2.270294,0 4.102941,1.83367623 4.102941,4.10524533 V 25.739888 c 0,2.271569 -1.832647,4.105245 -4.102941,4.105245 z"
           id="path200"
           inkscape:connector-curvature="0" />
      </g>
      <g
         transform="translate(172.32353,17.789396)"
         id="g291"
         style="fill-rule:nonzero">
        <g
           transform="translate(10.941176,2.73683)"
           id="g281">
          <g
             transform="translate(4.102941,83.473322)"
             id="g214">
            <path
               d="M 26.723824,14.874672 C 41.644853,17.337819 54.186177,16.612559 54.733235,13.273627 55.280294,9.9346937 43.627941,5.2273457 28.706912,2.7778827 13.785882,0.31473548 1.2445588,1.0399955 0.6975,4.3789283 0.15044118,7.7178612 11.802794,12.425209 26.723824,14.874672 Z"
               id="path204"
               inkscape:connector-curvature="0"
               style="fill:#f2bc97" />
            <g
               transform="translate(49.235294,10.947321)"
               id="g212">
              <path
                 d="M 2.8173529,1.4642042 C 13.348235,-3.5031427 17.191323,42.585078 14.852647,52.588193 12.513971,62.591307 6.3458823,45.486118 3.3233824,29.243031 0.31455882,12.972575 -1.3129412,3.4073536 2.8173529,1.4642042 Z"
                 id="path206"
                 inkscape:connector-curvature="0"
                 style="fill:#f2bc97" />
              <path
                 d="m 16.958823,53.381873 c 0,0 -0.806911,-4.132613 -1.053088,-4.201034 -0.246176,-0.05474 -7.0433821,0.369472 -7.0433821,0.369472 l 1.1488231,3.858931 z"
                 id="path208"
                 inkscape:connector-curvature="0"
                 style="fill:#f2bc97" />
              <path
                 d="m 16.958823,53.381873 c 0,0 2.393383,3.106303 7.645148,7.18418 5.251764,4.077877 6.646764,3.215775 6.756176,4.721032 0.109412,1.505256 -21.9780882,0 -21.9780882,0 L 9.8333824,52.943981 c 0,0 7.1254406,0.109473 7.1254406,0.437892 z"
                 id="path210"
                 inkscape:connector-curvature="0"
                 style="fill:#bc187a" />
            </g>
          </g>
          <g
             transform="translate(19.147059,76.631246)"
             id="g226">
            <path
               d="m 24.959559,16.749401 c 14.60647,4.638927 27.284559,5.774712 28.310294,2.545252 C 54.295588,16.065193 43.272353,9.688379 28.665882,5.0631359 14.059412,0.42420868 1.3813235,-0.71157586 0.35558823,2.5178838 -0.67014706,5.7473434 10.339412,12.124158 24.959559,16.749401 Z"
               id="path216"
               inkscape:connector-curvature="0"
               style="fill:#f2bc97" />
            <g
               transform="translate(8.205882,16.420981)"
               id="g224">
              <path
                 d="M 41.453382,1.176837 C 53.762206,4.7210321 22.306324,42.762972 13.115735,49.345049 3.9251471,55.913441 12.445588,40.121931 21.731912,24.508315 31.018235,8.8673299 36.611912,-0.21894642 41.453382,1.176837 Z"
                 id="path218"
                 inkscape:connector-curvature="0"
                 style="fill:#f2bc97" />
              <polygon
                 points="11.789118,41.134558 16.931471,46.567166 13.320882,50.53557 8.6708823,45.924011 8.7666177,45.787169 "
                 id="polygon220"
                 style="fill:#f2bc97" />
              <path
                 d="m 13.320882,50.53557 c 0,0 -0.2325,3.585247 0.916324,9.565221 1.148823,5.979974 2.625882,6.226289 1.791618,7.334705 C 15.194559,68.530229 0.90264706,54.148186 0.90264706,54.148186 L 8.6572059,45.924011 c 0.013676,0 4.8551471,4.392612 4.6636761,4.611559 z"
                 id="path222"
                 inkscape:connector-curvature="0"
                 style="fill:#bc187a" />
            </g>
          </g>
          <path
             d="m 66.700147,111.26583 c -1.080441,1.72421 -2.256618,3.48946 -3.4875,5.24103 -8.411029,12.04205 -19.188088,24.01569 -19.188088,24.01569 l -6.633088,-5.99366 c 0,0 17.505882,-32.91038 16.835735,-34.22406 C 53.557059,98.963781 14.88,92.545914 13.102059,79.696496 11.324118,66.847078 32.796177,76.549141 32.796177,76.549141 c 0,0 39.25147,8.593647 40.18147,19.267285 0.328235,3.571563 -2.379706,9.277854 -6.2775,15.449404 z"
             id="path228"
             inkscape:connector-curvature="0"
             style="fill:#27407e" />
          <path
             d="m 66.700147,111.26583 c -1.080441,1.72421 -2.256618,3.48946 -3.4875,5.24103 L 54.213529,100.30483 47.170147,87.578567 c 1.121471,0.355788 14.497059,0.615787 17.369118,9.305223 1.271912,3.81788 1.873676,9.35996 2.160882,14.38204 z"
             id="path230"
             inkscape:connector-curvature="0"
             style="opacity:0.5;fill:#27407e" />
          <path
             d="m 70.4475,144.72358 h -8.520441 c 0,0 -0.50603,-1.87473 -1.326618,-4.8305 C 57.646323,129.21944 50.712353,104.43744 49.837059,103.39745 48.729265,102.07008 17.081912,102.72692 7.5630882,99.634304 -1.9694118,96.541686 1.9147059,79.039657 1.9147059,79.039657 L 13.95,79.532286 h 0.01368 l 7.111764,0.287367 c 0,0 34.984412,6.198921 40.96103,16.065194 5.976617,9.838903 8.301617,48.838733 8.411029,48.838733 z"
             id="path232"
             inkscape:connector-curvature="0"
             style="fill:#2b478b" />
          <path
             d="M 60.600441,139.89308 C 57.646323,129.21944 50.712353,104.43744 49.837059,103.39745 48.729265,102.07008 17.081912,102.72692 7.5630882,99.634304 -1.9694118,96.541686 1.9147059,79.039657 1.9147059,79.039657 L 13.95,79.532286 c -2.776324,2.558936 -7.0570588,8.374701 -3.296029,13.697835 4.60897,6.513656 38.08897,-0.0821 42.260294,8.785229 3.077206,6.52734 6.23647,27.3683 7.686176,37.87773 z"
             id="path234"
             inkscape:connector-curvature="0"
             style="opacity:0.5;fill:#27407e" />
          <g
             transform="translate(19.147059,28.736717)"
             id="g244"
             style="fill:#f2bc97">
            <path
               d="M 2.8583823,1.3820993 C 4.5542647,1.5463091 7.0297059,0.65683925 7.5767647,2.2989374 9.9975,9.6199582 18.189706,30.816708 12.705441,32.527227 8.4657353,33.85459 4.3354412,16.735717 2.2292647,8.059965 0.88897059,2.5999887 -1.2445588,0.99894303 2.8583823,1.3820993 Z"
               id="path236"
               inkscape:connector-curvature="0" />
            <g
               transform="translate(8.205882,25.999887)"
               id="g242">
              <path
                 d="m 1.4223529,1.9978861 c 1.1625,-0.9442065 2.79,-1.06736383 4.185,-0.5610502 C 12.172059,3.8315623 35.504118,12.520998 35.681912,15.545196 35.887059,19.062022 1.4907353,8.0052284 0.99838235,6.2126046 0.62911765,4.8578736 -0.16411765,3.2841963 1.4223529,1.9978861 Z"
                 id="path238"
                 inkscape:connector-curvature="0" />
              <path
                 d="m 31.414853,13.971518 c 0.806912,-2.271569 4.567941,-0.437893 5.826176,0.246315 2.051471,1.094732 3.610589,3.941035 3.186618,4.762084 -0.423971,0.82105 -4.937206,-1.956833 -5.197059,-1.84736 -0.246176,0.109473 1.818971,1.669467 1.340294,2.394727 -0.478676,0.72526 -3.473823,-0.985259 -4.403823,-2.134728 -0.916324,-1.149469 -1.258236,-1.997886 -0.752206,-3.421038 z"
                 id="path240"
                 inkscape:connector-curvature="0" />
            </g>
          </g>
          <path
             d="m 23.0175,50.494517 c 0,0 -3.72,-19.499915 2.543823,-20.362016 6.78353,-0.944207 7.822942,19.280968 7.822942,19.280968 z"
             id="path246"
             inkscape:connector-curvature="0"
             style="fill:#bc187a" />
          <path
             d="m 32.809853,76.535457 c -0.150441,0.09579 -0.287206,0.191578 -0.451324,0.259999 -0.834264,0.492629 -1.750588,0.903154 -2.735294,1.245258 C 19.434265,81.694382 1.9283823,79.025972 1.9283823,79.025972 2.1608824,76.932297 2.2839706,73.429155 2.4070588,69.214436 2.5164706,65.013402 2.6258824,60.100791 2.8173529,55.147129 3.1319118,47.005059 3.6652941,38.739832 4.8277941,33.348276 5.2654412,31.295653 5.5936765,30.009343 9.0675,28.627244 c 4.020882,-1.601046 13.033676,-1.245258 17.505882,1.341047 2.612206,1.505256 4.896177,7.184179 4.65,12.671524 -0.246176,5.487344 -2.735294,6.814707 -2.913088,15.285196 -0.109412,5.637871 1.914706,12.028369 3.282353,15.654669 0.382941,1.026312 0.724853,1.833677 0.943677,2.33999 0.177794,0.410525 0.273529,0.615787 0.273529,0.615787 z"
             id="path248"
             inkscape:connector-curvature="0"
             style="fill:#da3685" />
          <path
             d="M 32.932941,74.195467 32.55,75.933354 l -0.191471,0.862102 -0.382941,1.737887 c 0,0 -0.88897,-0.177894 -2.352353,-0.492629 C 23.154265,76.672298 5.4705882,72.690211 2.7079412,69.570224 2.5985294,69.460751 2.5027941,69.323909 2.4070588,69.200752 2.5164706,64.999718 2.6258824,60.087107 2.8173529,55.133445 l 5.4432353,-6.335762 3.8430888,1.819992 -1.764265,13.205206 21.266911,9.743115 z"
             id="path250"
             style="opacity:0.3;fill:url(#linearGradient-8)"
             inkscape:connector-curvature="0" />
          <path
             d="m 12.773824,20.033597 c 0,0 0,8.224175 0,8.552595 0,0 1.326617,3.078934 4.896176,3.078934 3.569559,0 4.485882,-2.90104 4.485882,-3.243144 0,-0.342104 0,-4.898926 0,-4.898926 0,0 4.567942,1.737887 6.482647,0.246314 1.914706,-1.491572 2.899412,-3.078934 3.077206,-9.058908 C 31.879853,8.7304884 31.797794,4.5705065 27.9,3.1610389 24.002206,1.7515713 11.542941,-1.2452577 9.0538235,5.4052397 6.5510294,12.055737 12.773824,20.033597 12.773824,20.033597 Z"
             id="path252"
             inkscape:connector-curvature="0"
             style="fill:#f2bc97" />
          <polygon
             id="polygon254"
             points="17.451176,21.826221 22.155882,26.246202 22.155882,23.523056 "
             style="fill:#f2bc97" />
          <g
             transform="translate(23.25,60.210265)"
             id="g265">
            <g
               id="Group">
              <path
                 d="M 15.016765,25.630415 18.476912,25.479889 41.275588,24.549367 50.862794,2.0526227 50.602941,2.0389385 24.945882,0.79368076 17.9025,18.405183 Z M 35.873382,13.930466 c -0.533382,1.176837 -1.6275,1.819992 -2.434411,1.464204 -0.820589,-0.383156 -1.053089,-1.628414 -0.519706,-2.805251 0.533382,-1.163153 1.6275,-1.819992 2.434411,-1.464204 0.806912,0.39684 1.039412,1.628414 0.519706,2.805251 z"
                 id="path256"
                 style="fill:url(#linearGradient-9)"
                 inkscape:connector-curvature="0" />
              <path
                 d="m 35.353676,11.138899 c 0.806912,0.369472 1.053089,1.61473 0.519706,2.791567 -0.533382,1.176837 -1.613823,1.819992 -2.434411,1.464204 -0.806912,-0.369472 -1.053089,-1.61473 -0.519706,-2.791567 0.519706,-1.176837 1.613823,-1.833676 2.434411,-1.464204 z"
                 id="path258"
                 inkscape:connector-curvature="0"
                 style="fill:#c7def2" />
              <polygon
                 id="polygon260"
                 points="15.016765,25.630415 1.3402941,18.172553 17.888824,18.418867 "
                 style="fill:url(#linearGradient-10)" />
            </g>
            <path
               d="m 15.016765,25.616731 26.245147,-1.05368 -0.164118,1.21789 -26.23147,0.998943 c -0.01368,0 0.164117,-1.176837 0.150441,-1.163153 L 14.852647,26.779884 1.1761765,19.335705 1.3402941,18.172553"
               id="path263"
               inkscape:connector-curvature="0"
               style="fill:#6c6cf4" />
          </g>
          <g
             transform="translate(1.367647,30.105132)"
             id="g277"
             style="fill:#f2bc97">
            <path
               d="M 8.6845588,0.53368189 C 10.216324,1.2589419 11.050588,2.9420925 10.995882,4.6662955 10.749706,12.384157 9.5051471,38.904041 3.7747059,38.630358 -0.65647059,38.411412 1.3402941,20.909383 2.3386765,12.055737 2.9541177,6.4589193 4.9645588,-1.2315736 8.6845588,0.53368189 Z"
               id="path267"
               inkscape:connector-curvature="0" />
            <g
               transform="translate(0,30.105132)"
               id="g275">
              <path
                 d="M 2.2702941,4.3241917 C 3.3507353,3.4210378 4.8825,3.2841963 6.2227941,3.7494574 12.459265,5.9252374 34.6425,13.848361 34.847647,16.694664 35.093823,20.006229 2.4207353,10.016799 1.9283823,8.3199639 1.5591176,7.0336536 0.79323529,5.5557653 2.2702941,4.3241917 Z"
                 id="path269"
                 inkscape:connector-curvature="0" />
              <path
                 d="m 1.0257353,1.2315736 c 0,0 -0.25985295,5.6241861 0.7111765,7.2115476 0.9710294,1.5873618 9.7513232,3.7220888 9.7513232,3.7220888 0,0 -7.6861762,-8.8399613 -7.7135291,-8.9357503 0,-0.082105 -2.7489706,-1.9978861 -2.7489706,-1.9978861 z"
                 id="path271"
                 inkscape:connector-curvature="0" />
              <path
                 d="m 30.799412,15.257828 c 0.738529,-2.162095 4.308088,-0.465261 5.511617,0.150526 1.955736,1.012627 3.473824,3.681037 3.077206,4.461033 -0.382941,0.779997 -4.691029,-1.792623 -4.937206,-1.68315 -0.2325,0.109473 1.736912,1.559993 1.299265,2.257885 -0.437647,0.697891 -3.296029,-0.88947 -4.185,-1.956834 -0.902647,-1.081048 -1.230882,-1.874729 -0.765882,-3.22946 z"
                 id="path273"
                 inkscape:connector-curvature="0" />
            </g>
          </g>
          <path
             d="m 2.0377941,49.591363 c 0,0 0.5333824,-20.854646 6.8382353,-20.457805 8.2742646,0.519997 3.2276476,21.497801 3.2276476,21.497801 z"
             id="path279"
             inkscape:connector-curvature="0"
             style="fill:#da3685" />
        </g>
        <g
           id="g289">
          <path
             d="m 23.783382,23.742002 c 0,0 6.947647,-1.382099 5.607353,-5.350503 -0.533382,-1.587362 -2.694264,-5.596818 0.314559,-6.445235 3.008824,-0.848418 3.049853,7.991544 3.049853,7.991544 0,0 1.531765,-7.334705 1.764265,-7.786282 0.19147,-0.383156 2.51647,-4.4062965 7.809264,-1.012627 C 43.080882,11.617844 42.684265,0.36947208 31.278088,0.15052566 22.935441,-0.01368415 17.724706,3.804194 18.244412,10.454691 c 0.533382,6.677866 1.791617,9.852589 5.53897,13.287311 z"
             id="path283"
             inkscape:connector-curvature="0"
             style="fill:#172c66" />
          <path
             d="m 19.516323,7.4578623 c 0,0 -9.5598524,-4.5431381 -13.2114701,0.9578906 -3.6516176,5.5010291 3.6516177,21.0325401 -6.01764702,22.6746381 0,0 9.92911812,5.651555 14.83897112,-1.217889 4.909852,-6.869444 2.065146,-13.643099 4.909852,-13.424152"
             id="path285"
             inkscape:connector-curvature="0"
             style="fill:#172c66" />
          <path
             d="m 18.517941,7.0610219 c 0,0 -0.465,5.7883961 0.711177,9.6746951 0,0 0.273529,0.848417 -0.560736,0.821049 -0.847941,-0.02737 -2.174558,-8.6210154 -1.35397,-10.851532 0.164117,-0.4652611 1.203529,0.3557879 1.203529,0.3557879 z"
             id="path287"
             inkscape:connector-curvature="0"
             style="fill:#da3685" />
        </g>
      </g>
      <g
         transform="translate(408.92647,266.84095)"
         id="g325"
         style="fill-rule:nonzero">
        <g
           id="g309">
          <g
             id="g305"
             transform="translate(0,2.73683)">
            <path
               d="m 43.778382,31.596705 h 0.205147 c 0,0 2.858383,-0.424209 5.607353,-1.984202 l 0.02735,0.05474 v 4.036825 c 0,0 -0.779559,3.831562 -5.484264,4.91261 C 39.456615,37.53563 38.649703,33.6767 38.649703,33.6767 v -3.708405 l 0.05471,-0.06842 c 2.571176,1.327363 5.07397,1.696835 5.07397,1.696835 z"
               id="path293"
               inkscape:connector-curvature="0"
               style="fill:#f2bc97" />
            <path
               d="m 43.983529,31.596705 h -0.205147 c 0,0 -2.502794,-0.369472 -5.087647,-1.696835 -2.475441,-1.231574 -5.005588,-3.311565 -5.511617,-6.69155 0,0 -2.872059,-1.258942 -2.83103,-3.612616 0.05471,-2.353674 2.5575,-1.724203 2.5575,-1.724203 0,0 -2.078823,-7.41681 1.832647,-12.8767859 3.897794,-5.48734454 8.917059,-3.7768257 8.917059,-3.7768257 h 0.396618 c 0,0 5.032941,-1.69683469 8.930735,3.7768257 3.925147,5.4599759 1.832647,12.8767859 1.832647,12.8767859 0,0 2.502794,-0.629471 2.5575,1.724203 0.05471,2.353674 -2.803676,3.612616 -2.803676,3.612616 -0.478677,3.161039 -2.707942,5.158925 -4.978236,6.404183 -2.762647,1.559993 -5.607353,1.984202 -5.607353,1.984202 z"
               id="path295"
               inkscape:connector-curvature="0"
               style="fill:#f2bc97" />
            <path
               d="m 68.081471,90.356449 0.05471,0.150526 C 56.976176,94.885903 45.132353,102.07008 44.133971,102.67219 43.135588,102.07008 31.319118,94.913272 20.159118,90.506975 l 0.05471,-0.150526 V 79.860706 73.853363 h 2.584853 21.19853 0.328235 21.171177 2.598529 v 6.007343 10.495743 z"
               id="path297"
               style="fill:url(#linearGradient-11)"
               inkscape:connector-curvature="0" />
            <path
               d="m 20.200147,90.356449 -0.05471,0.150526 C 18.039265,89.685926 15.946765,88.960666 13.963677,88.372248 8.9307353,84.294371 2.0514706,78.355449 1.2719118,75.796513 0.64279412,73.798627 3.3507353,67.928126 6.7835294,61.523943 l 0.054706,0.02737 11.2694116,6.363131 c -1.531765,2.750514 -2.831029,5.40524 -2.571176,6.089447 0.519705,1.546309 4.60897,5.856817 4.60897,5.856817 h 0.06838 v 10.495743 z"
               id="path299"
               inkscape:connector-curvature="0"
               style="fill:#f2bc97" />
            <path
               d="M 68.081471,90.356449 V 79.860706 h 0.08206 c 0,0 4.048236,-4.310508 4.608971,-5.856817 0.246176,-0.670523 -1.053088,-3.325249 -2.584853,-6.089447 l 11.269412,-6.363131 0.05471,-0.02737 c 3.432794,6.417867 6.127058,12.274684 5.511617,14.27257 -0.779558,2.531568 -7.63147,8.470489 -12.664411,12.548366 -1.983089,0.574735 -4.075589,1.299995 -6.209118,2.148412 z"
               id="path301"
               inkscape:connector-curvature="0"
               style="fill:#f2bc97" />
            <path
               d="M 43.983529,73.853363 H 22.785 v -0.39684 c 0.246176,-4.159982 -0.300882,-12.917839 -0.300882,-12.917839 0,0 -2.407059,3.804194 -4.376471,7.389442 L 6.8382353,61.564996 6.7835294,61.537627 C 10.284706,54.928182 14.592794,47.716635 16.849412,43.556653 21.307941,35.346162 38.649706,33.69038 38.649706,33.69038 c 0,0 0.806912,3.85893 5.484265,4.939978 4.704705,-1.081048 5.484264,-4.91261 5.484264,-4.91261 0,0 17.369118,1.628414 21.827647,9.838905 2.256618,4.159982 6.55103,11.371529 10.065883,17.980974 l -0.05471,0.02737 -11.269412,6.36313 c -1.983088,-3.585248 -4.37647,-7.389442 -4.37647,-7.389442 0,0 -0.547059,8.771541 -0.328236,12.917839 v 0.39684 H 44.311765 43.983529 Z"
               id="path303"
               inkscape:connector-curvature="0"
               style="fill:#da3685" />
          </g>
          <path
             d="m 31.401176,17.652555 c -0.150441,-0.232631 -0.765882,-1.204205 -0.683823,-2.57262 0.09574,-1.792624 1.271912,-2.764199 1.422353,-2.873672 -0.05471,-0.123158 -0.314559,-0.738944 -0.123088,-1.464204 0.177794,-0.643155 0.642794,-1.1221008 1.217205,-1.2589423 -0.04103,-0.1642098 -0.437646,-1.6831506 0.328236,-2.9694608 0.670147,-1.1357845 1.955735,-1.6147298 3.159264,-1.1631528 0.08206,-1.5189408 0.847942,-2.8463034 1.983089,-3.4484061 1.58647,-0.8484174 3.036176,0.2052623 3.159264,0.2873672 0.01368,-0.041053 0.328236,-0.8894699 1.094118,-1.0263114 0.506029,-0.095789 1.012059,0.1642098 1.326618,0.6568393 0.314559,-0.4926295 0.820588,-0.7389442 1.326617,-0.6568393 0.765883,0.1368415 1.080442,0.9715748 1.094118,1.0263114 0.123088,-0.095789 1.572794,-1.1357846 3.159265,-0.2873672 1.135147,0.6021027 1.901029,1.9431495 1.983088,3.4484061 1.217206,-0.451577 2.489118,0.041052 3.159265,1.1631528 0.765882,1.2863102 0.369264,2.805251 0.328235,2.9694608 0.574412,0.1368415 1.039412,0.6294713 1.217206,1.2589423 0.19147,0.72526 -0.06838,1.341046 -0.123088,1.464204 0.136764,0.109473 1.312941,1.081048 1.422353,2.873672 0.08206,1.382099 -0.533383,2.339989 -0.683824,2.57262 0.465,0.369472 0.670147,1.081048 0.492353,1.696835 -0.177794,0.602102 -0.670147,1.012627 -1.217206,0.971574 -0.123088,0.136842 -0.300882,0.301052 -0.547059,0.437893 -0.164117,0.09579 -0.314559,0.136842 -0.451323,0.16421 -0.164118,-0.06842 -0.560736,-0.259999 -0.834265,-0.72526 -0.533382,-0.930522 -0.09573,-2.066307 -0.08206,-2.121043 -0.177794,-0.205263 -1.230882,-1.532625 -1.012059,-3.188408 0.05471,-0.383156 0.164118,-0.697891 0.287206,-0.971574 -0.218823,-0.09579 -1.504412,-0.670524 -1.928382,-2.189464 -0.123088,-0.465262 -0.136765,-0.88947 -0.123088,-1.21789 -0.396618,0.273683 -0.875294,0.273683 -1.217206,0 -0.287206,-0.23263 -0.396618,-0.5747343 -0.423971,-0.7115758 -0.287206,0.1778939 -1.025735,0.5884188 -2.010441,0.4926298 -1.025735,-0.109474 -1.709559,-0.7115762 -1.969412,-0.9442068 0,0 -0.287206,1.0673638 -1.81897,1.0947318 v 0 c -0.01368,0 -0.01368,0 -0.02735,0 -0.01368,0 -0.01368,0 -0.02735,0 v 0 c -1.545441,-0.02737 -1.818971,-1.0947318 -1.818971,-1.0947318 -0.246176,0.2463147 -0.943676,0.8484178 -1.969412,0.9442068 -0.984705,0.09579 -1.723235,-0.3010517 -2.010441,-0.4926298 -0.02735,0.1231573 -0.136764,0.4789458 -0.42397,0.7115758 -0.341912,0.273683 -0.820589,0.273683 -1.217206,0 0.01368,0.32842 0,0.752628 -0.123088,1.21789 -0.423971,1.51894 -1.709559,2.093675 -1.928383,2.189464 0.123089,0.273683 0.2325,0.588418 0.287206,0.971574 0.218824,1.655783 -0.834265,2.983145 -1.012059,3.188408 0.02735,0.05474 0.451324,1.176837 -0.08206,2.121043 -0.27353,0.478945 -0.656471,0.656839 -0.834265,0.72526 -0.123089,-0.02737 -0.27353,-0.0821 -0.451324,-0.16421 -0.246176,-0.136841 -0.42397,-0.301051 -0.547059,-0.437893 -0.547058,0.02737 -1.039411,-0.369472 -1.217206,-0.971574 -0.177794,-0.629471 0.01368,-1.327363 0.492353,-1.696835 z"
             id="path307"
             inkscape:connector-curvature="0"
             style="fill:#172c66" />
        </g>
        <g
           transform="translate(0,88.946982)"
           id="g323">
          <path
             d="m 64.662353,32.623016 c 0,0 -57.5779412,-5.104188 -63.4041177,-17.652555 C -3.0361765,5.7336593 6.0723529,-1.6557823 16.562206,1.9842019 27.052059,5.6241861 64.812794,24.152527 64.812794,24.152527 Z"
             id="path311"
             inkscape:connector-curvature="0"
             style="fill:#0f0f0f" />
          <path
             d="m 67.725882,25.630415 v 7.471546 c 0,0 9.847059,0.65684 10.489853,-0.451577 0.629118,-1.108416 1.395,-5.090504 -1.107794,-6.992601 -2.502794,-1.915781 -8.6025,-1.997886 -9.382059,-0.02737 z"
             id="path313"
             inkscape:connector-curvature="0"
             style="fill:#000000" />
          <polygon
             points="64.4025,32.623016 64.552941,24.166211 68.409706,25.589363 68.409706,33.019857 "
             id="polygon315"
             style="fill:#f2bc97" />
          <path
             d="m 23.632941,32.623016 c 0,0 57.577941,-5.104188 63.404118,-17.652555 C 91.331471,5.7336593 82.222941,-1.6557823 71.733088,1.9842019 61.243235,5.6241861 23.4825,24.152527 23.4825,24.152527 Z"
             id="path317"
             inkscape:connector-curvature="0"
             style="fill:#1a1a1a" />
          <polygon
             points="23.769706,32.623016 23.619265,24.166211 19.7625,25.589363 19.7625,33.019857 "
             id="polygon319"
             style="fill:#f2bc97" />
          <path
             d="m 19.830882,25.630415 v 7.471546 c 0,0 -9.8470585,0.65684 -10.4898526,-0.451577 -0.6291176,-1.108416 -1.395,-5.090504 1.1077946,-6.992601 2.502794,-1.915781 8.602499,-1.997886 9.382058,-0.02737 z"
             id="path321"
             inkscape:connector-curvature="0"
             style="fill:#000000" />
        </g>
      </g>
      <g
         transform="translate(25.985294,213.47276)"
         id="g394">
        <g
           transform="translate(31.455882,28.736717)"
           id="g331"
           style="fill:#f2bc97;fill-rule:nonzero">
          <path
             d="M 2.4344118,1.6557823 C 1.3402941,2.5178838 0.93,4.0094563 1.2035294,5.3641872 2.4344118,11.453634 7.1938235,34.593534 11.693382,33.85459 16.9725,32.978804 10.339412,12.384157 8.2058824,7.4715465 6.1407353,2.7368302 5.0876471,-0.43789283 2.4344118,1.6557823 Z"
             id="path327"
             inkscape:connector-curvature="0" />
          <path
             d="M 9.8607353,32.47249 C 9.3547059,31.254601 9.5735294,29.872502 10.284706,28.764086 13.799559,23.304109 26.710147,3.6263 29.5275,4.0915612 32.7825,4.6389272 15.249265,33.088277 13.7175,33.936695 12.390882,34.675639 10.681324,34.429324 9.8607353,32.47249 Z"
             id="path329"
             inkscape:connector-curvature="0" />
        </g>
        <path
           d="m 36.228971,29.256715 0.629117,10.372586 1.012059,16.708349 c 0,0 2.735294,7.854703 5.949265,7.512599 2.311323,-0.259999 9.272647,-11.727318 13.033676,-18.186237 0,-0.01368 0.01368,-0.02737 0.01368,-0.04105 1.477058,-2.517884 2.448088,-4.269456 2.448088,-4.269456 L 54.377647,37.932467 44.858823,50.193466 C 38.991618,31.788283 36.228971,29.256715 36.228971,29.256715 Z"
           id="path333"
           inkscape:connector-curvature="0"
           style="fill:#2b478b;fill-rule:nonzero" />
        <path
           d="m 36.858088,39.642986 1.012059,16.708348 c 0,0 2.735294,7.854703 5.949265,7.512599 2.311323,-0.259999 9.272647,-11.727317 13.033676,-18.186237 -3.856764,5.049452 -10.9275,14.395727 -13.526029,14.327307 C 40.290882,59.922898 38.13,34.443008 38.13,34.443008 Z"
           id="path335"
           inkscape:connector-curvature="0"
           style="opacity:0.3;fill:#1e3161;fill-rule:nonzero" />
        <g
           id="XMLID_3_">
          <g
             id="g353"
             style="fill-rule:nonzero">
            <path
               d="m 19.995,24.193579 c 0,0 1.983088,2.709462 5.8125,2.805251 2.037794,0.05474 3.0225,-1.642098 3.0225,-1.642098 l -0.506029,-1.833676 c 0,0.01368 -0.02735,-0.16421 -0.04103,-0.177894 v -0.123158 c 0.355588,0.09579 0.492353,0.150526 0.834265,0.150526 0,0 0.19147,0 0.136765,0 1.230882,-0.02737 2.584852,-0.246315 3.282353,-0.998943 1.518088,-1.587362 2.899411,-4.51577 2.967794,-6.541024 0.05471,-2.038939 1.148823,-5.56945 1.189853,-6.4315512 C 36.735,8.5389103 35.695588,7.2936525 35.408382,6.431551 c 0.04103,-0.068421 0.06838,-0.1094732 0.06838,-0.1094732 0,0 -8.547794,-8.607331 -12.746471,-3.5168268 -4.198676,5.0905042 -2.229265,14.724147 -2.229265,14.724147 l -0.01368,0.656839 c 0.150441,0.246314 0.273529,0.424208 0.355588,0.56105 -0.08206,-0.123157 -0.205147,-0.314736 -0.355588,-0.56105 z m 1.381324,-4.830505 c -0.191471,-0.314736 -0.369265,-0.643155 -0.533383,-0.971575 0,0 0,0 0,0 0.164118,0.32842 0.341912,0.656839 0.533383,0.971575 z"
               id="path337"
               inkscape:connector-curvature="0"
               style="fill:#f2bc97" />
            <path
               d="m 7.1527941,57.021858 c -0.013677,1.272626 -0.013677,2.545252 0,3.804193 0.027353,9.182066 0.2872059,17.611503 1.1214706,17.652555 8.0554413,0.465261 25.2194113,1.970518 29.6916173,-2.230516 2.201912,-8.579963 0.465,-29.147242 0.328236,-40.819823 -0.05471,-4.51577 -2.872059,-8.607331 -7.166471,-10.003114 C 29.787353,24.98726 28.843676,24.959892 28.679559,24.973576 28.105147,28.77777 19.160735,24.220947 20.063382,23.76937 11.173676,24.850418 6.5647059,26.916725 7.44,39.752459 7.3169118,43.064023 7.1664706,49.960836 7.1527941,57.021858 Z"
               id="path339"
               inkscape:connector-curvature="0"
               style="fill:#2b478b" />
            <polygon
               id="polygon341"
               points="30.006176,46.539798 10.421471,52.807139 9.6282353,48.428211 14.674853,34.005115 13.211471,49.536627 "
               style="opacity:0.3;fill:#1e3161" />
            <path
               d="m 7.1527941,57.021858 c -0.013677,1.272626 -0.013677,2.545252 0,3.804193 C 17.355441,58.869218 31.031912,51.602934 31.031912,51.602934 L 8.2058824,56.474491 c 0,0 -0.4239706,0.218947 -1.0530883,0.547367 z"
               id="path343"
               inkscape:connector-curvature="0"
               style="opacity:0.3;fill:#1e3161" />
            <polygon
               id="polygon345"
               points="3.5969118,161.50035 10.503529,161.07614 9.5598529,165.00349 3.9251471,164.77086 "
               style="fill:#f2bc97" />
            <path
               d="m 1.6822059,176.44344 h 8.9991181 c 0.697499,0 1.244558,-0.56105 1.258235,-1.24525 0.02735,-1.92947 -0.328236,-4.33788 -1.148824,-5.88419 -1.0120585,-1.92946 -1.1077938,-4.65261 -1.1077938,-4.65261 H 3.7883824 c -0.1504412,1.42315 -0.4513236,3.01051 -1.1077942,3.92735 -0.9436764,1.32736 -1.77794114,4.43367 -2.22926467,6.30839 -0.17779412,0.79369 0.42397059,1.54631 1.23088237,1.54631 z"
               id="path347"
               style="fill:url(#linearGradient-12)"
               inkscape:connector-curvature="0" />
            <polygon
               id="polygon349"
               points="36.625588,165.00349 43.436471,165.04455 43.0125,161.89719 35.887059,161.8014 "
               style="fill:#f2bc97" />
            <path
               d="M 4.0619118,162.10245 H 9.3957353 10.941176 L 23.619265,99.702725 35.750294,162.93719 h 0.793235 6.2775 1.012059 L 37.952206,76.24809 C 33.2475,78.25966 12.705441,79.025972 7.9460294,77.93124 l -4.9508823,84.17121 z"
               id="path351"
               inkscape:connector-curvature="0"
               style="fill:#bc187a" />
          </g>
          <g
             id="g367"
             transform="translate(0,39.684038)">
            <polyline
               id="polyline355"
               points="43.5595588 125.812085 36.7760294 125.812085 36.5845588 125.812085" />
            <path
               d="m 9.4094118,122.41842 v 2.55893 c 0,0 0.2735294,2.5042 1.2172062,4.28314 0.93,1.76526 1.012059,4.72103 0.793235,6.58208 H 0.58808823 c 0,0 1.06676467,-5.41893 2.36602947,-7.23892 0.6154411,-0.84842 0.8889705,-2.31262 1.0257352,-3.6263 0.095735,-1.10841 0.095735,-2.10736 0.095735,-2.55893"
               id="path357"
               inkscape:connector-curvature="0" />
            <polyline
               id="polyline359"
               points="9.64191176 124.977352 9.40941176 124.977352 3.97985294 124.977352 3.88411765 124.977352" />
            <path
               d="M 23.619265,7.0336536 20.610441,1.0810479 c 0,0 -7.084412,4.1189295 -10.6949998,5.5283971 C 8.9307353,7.0062853 8.2058824,7.1841793 7.9597059,7.0199695 l 1.86,-6.91049629 0.095735,6.48628759 v 0.082105"
               id="path361"
               inkscape:connector-curvature="0" />
            <path
               d="m 23.619265,7.0336536 c 0,0 -0.01368,0.013684 -0.04103,0.027368 -0.6975,0.6157868 -9.806029,8.4157534 -15.7005879,10.3725864"
               id="path363"
               inkscape:connector-curvature="0" />
            <polyline
               id="polyline365"
               points="7.97338235 7.03365365 2.46176471 17.0641364 2.42073529 17.1462413" />
          </g>
        </g>
        <g
           transform="translate(2.735294,25.999887)"
           id="g376"
           style="fill-rule:nonzero">
          <path
             d="m 7.7955882,1.3820993 c -1.367647,0.273683 -2.4207353,1.4094675 -2.79,2.7368302 C 3.3233824,10.098904 -1.9557353,30.214606 2.3797059,31.596705 7.4810294,33.225119 11.105294,15.148355 11.488235,9.7978522 11.802794,5.3505031 11.105294,0.72526001 7.7955882,1.3820993 Z"
             id="path370"
             inkscape:connector-curvature="0"
             style="fill:#f2bc97" />
          <path
             d="M 1.8326471,29.215662 C 2.2429412,27.970405 3.3233824,27.053567 4.5816176,26.697779 10.818088,24.877787 33.452647,18.45992 35.271618,20.649384 37.377794,23.194636 5.1560294,33.950379 3.7883824,32.855647 2.7352941,32.007229 1.1761765,31.227233 1.8326471,29.215662 Z"
             id="path372"
             inkscape:connector-curvature="0"
             style="fill:#f2bc97" />
          <path
             d="m 4.1439706,5.432608 c 0,0 -2.6395588,10.673638 -3.39176472,15.900983 C 0,26.560937 -0.36926471,31.651441 2.4891176,33.225119 5.3475,34.785112 28.570147,25.534626 28.570147,25.534626 L 27.503382,20.348333 8.6982353,25.041996 c 0,0 2.8173527,-10.413638 3.2139707,-16.1336136 C 12.308824,3.1884072 10.954853,1.2178894 8.9580882,0.86210152 5.2107353,0.20526227 4.1439706,5.432608 4.1439706,5.432608 Z"
             id="path374"
             inkscape:connector-curvature="0"
             style="fill:#2b478b" />
        </g>
        <path
           d="m 20.350588,6.7326023 c 0.164118,-0.5610502 0.355589,-1.1084162 0.560736,-1.6557823 0.724852,-1.9705177 1.928382,-4.09156112 3.979852,-4.51576981 1.641177,-0.34210377 3.255,0.51999771 4.855147,1.03999551 2.543824,0.8347332 5.361177,0.7799966 7.877648,-0.1368415 1.080441,-0.3968404 2.160882,-0.94420646 3.309705,-0.8484174 1.545442,0.13684151 2.762647,1.4642042 3.282353,2.9147242 0.806912,2.2578849 0.164118,4.9673468 -1.572794,6.636813 -1.709559,1.642098 -4.431176,2.189464 -6.660441,1.354731 -1.545441,-0.588418 -3.227647,-1.163153 -4.8825,-1.299994 -0.820588,-0.06842 -1.805294,-0.02737 -2.475441,0.519998 -0.656471,0.533682 -0.971029,1.327362 -1.285588,2.079991 -0.287206,0.697891 -0.533383,1.874728 -1.244559,2.285253 -0.6975,0.410524 -0.724853,-0.807365 -0.724853,-1.190521 0.01368,-0.793681 0.04103,-1.587362 0.06838,-2.394727 0.01368,-0.424209 0.191471,-1.436836 -0.273529,-1.7105187 -0.06838,-0.041052 -0.150441,-0.054737 -0.2325,-0.054737 -0.752206,-0.013684 -1.463383,0.4926297 -1.90103,1.0673637 -1.066764,1.409468 -0.328235,3.284197 -0.547058,4.871558 -0.150442,1.094732 -0.711177,3.256828 -2.201912,3.078934 -0.711177,-0.0821 -0.806912,-1.135784 -0.875294,-1.68315 -0.109412,-0.971575 -0.287206,-1.929466 -0.355589,-2.90104 -0.0547,-0.985259 0.136765,-1.94315 0.27353,-2.914724 0.2325,-1.5326258 0.574412,-3.0652508 1.025735,-4.5431391 z"
           id="path378"
           inkscape:connector-curvature="0"
           style="fill:#172c66;fill-rule:nonzero" />
        <g
           transform="translate(53.338235,23.263057)"
           id="g388"
           style="fill-rule:nonzero">
          <path
             d="m 4.5816176,5.9389216 c 0,0 -1.6548529,-0.6842076 -1.8189705,0.4926294 -0.1504412,1.1631528 0.6291176,4.51577 0.6291176,4.51577"
             id="path380"
             inkscape:connector-curvature="0"
             style="fill:#f2bc97" />
          <path
             d="M 12.363529,1.5736774 7.1254412,12.958891 c -0.095735,0.191578 -0.3008824,0.314736 -0.5197059,0.287367 L 1.6275,12.589419 C 1.2992647,12.548367 1.0941176,12.192579 1.2445588,11.891527 L 6.5373529,0.72526001 C 6.6194118,0.53368189 6.8245588,0.42420868 7.0297059,0.43789283 l 4.9235291,0.43789284 c 0.355589,0.0273683 0.560736,0.38315623 0.410294,0.69789173 z"
             id="path382"
             style="fill:url(#linearGradient-13)"
             inkscape:connector-curvature="0" />
          <path
             d="M 12.500294,1.8747287 7.2622059,13.259942 C 7.1664706,13.451521 6.9613235,13.574678 6.7425,13.54731 L 1.7642647,12.89047 C 1.4360294,12.849418 1.2308823,12.49363 1.3813235,12.192579 L 6.6741177,1.0263113 C 6.7698529,0.83473322 6.9613235,0.72526001 7.1664706,0.73894416 L 12.09,1.176837 c 0.355588,0.027368 0.560735,0.3968404 0.410294,0.6978917 z"
             id="path384"
             style="fill:url(#linearGradient-14)"
             inkscape:connector-curvature="0" />
          <path
             d="M 9.8197059,8.881014 C 9.8880882,8.2789114 9.7102941,7.5262831 8.6708823,7.2526001 7.3579412,6.8968121 5.8535294,7.1841793 5.7304412,8.1968065 5.5389706,9.6746948 5.8808823,11.645213 7.3032353,12.014685 8.1922059,12.233631 9.5872059,11.04311 9.8197059,8.881014 Z"
             id="path386"
             inkscape:connector-curvature="0"
             style="fill:#f2bc97" />
        </g>
        <path
           d="m 43.436471,165.04455 c 0,0 2.160882,2.65472 6.975,6.03471 4.814117,3.37998 6.017647,2.55893 6.168088,3.8863 0.164117,1.32736 -19.434265,0.9442 -19.434265,0.9442 l -0.533382,-10.90627 c 0.01368,0 6.810882,-0.23263 6.824559,0.0411 z"
           id="path390"
           style="fill:url(#linearGradient-15);fill-rule:nonzero"
           inkscape:connector-curvature="0" />
        <path
           d="m 34.861323,47.538741 c 0.177795,1.861044 3.720001,1.163153 4.92353,0.875785 1.955735,-0.465261 3.884118,-2.312621 3.706324,-3.010513 -0.177795,-0.697891 -4.554265,0.588419 -4.745736,0.451577 -0.19147,-0.123157 0.779559,-0.971575 0.547059,-1.601045 -0.2325,-0.643155 -2.024118,0.150525 -3.049853,0.848417 -1.025735,0.697892 -1.490735,1.272626 -1.381324,2.435779 z"
           id="path392"
           inkscape:connector-curvature="0"
           style="fill:#f2bc97;fill-rule:nonzero" />
      </g>
      <g
         transform="translate(41.029412,84.841737)"
         id="g406"
         style="fill:#c0c1fd;fill-rule:nonzero">
        <g
           id="g402">
          <path
             d="m 42.424412,10.906268 c -0.355589,0 -0.711177,-0.109473 -0.998383,-0.342103 -5.58,-4.3652446 -12.295147,-6.6641819 -19.393235,-6.6641819 -7.111765,0 -13.8132352,2.2989373 -19.3932352,6.6641819 C 1.9283823,11.125215 0.90264706,10.988373 0.34191177,10.276798 -0.21882353,9.5652216 -0.08205882,8.5389103 0.62911765,7.9778601 6.7972059,3.1610389 14.196177,0.6157868 22.046471,0.6157868 c 7.850294,0 15.249264,2.5452521 21.417352,7.3620733 0.711177,0.5610502 0.834265,1.5873615 0.287206,2.2989379 -0.355588,0.424208 -0.834264,0.62947 -1.326617,0.62947 z"
             id="path396"
             inkscape:connector-curvature="0" />
          <path
             d="m 37.637647,17.296767 c -0.355588,0 -0.711176,-0.109473 -1.012059,-0.355788 -4.185,-3.311565 -9.231617,-5.063136 -14.592794,-5.063136 C 16.671618,11.877843 11.625,13.629414 7.44,16.940979 6.7288235,17.502029 5.7030882,17.378872 5.1423529,16.667296 4.5816176,15.95572 4.7047059,14.929409 5.4158824,14.368359 10.188971,10.605217 15.933088,8.607331 22.032794,8.607331 c 6.099706,0 11.843824,1.997886 16.616912,5.761028 0.711176,0.56105 0.834265,1.587361 0.273529,2.298937 -0.328235,0.424209 -0.806912,0.629471 -1.285588,0.629471 z"
             id="path398"
             inkscape:connector-curvature="0" />
          <path
             d="m 11.501912,24.125158 c -0.478677,0 -0.943677,-0.205262 -1.271912,-0.602102 -0.5744118,-0.697892 -0.465,-1.737888 0.246176,-2.298938 3.255001,-2.641041 7.357942,-4.091561 11.542942,-4.091561 4.185,0 8.287941,1.45052 11.542941,4.091561 0.6975,0.574735 0.806912,1.601046 0.246176,2.298938 -0.574412,0.697891 -1.600147,0.807365 -2.297647,0.246314 -2.680588,-2.17578 -6.045,-3.366301 -9.49147,-3.366301 -3.446471,0 -6.810883,1.190521 -9.491471,3.366301 -0.300882,0.232631 -0.65647,0.355788 -1.025735,0.355788 z"
             id="path400"
             inkscape:connector-curvature="0" />
        </g>
        <path
           d="m 26.231471,28.969348 c 0,2.326305 -1.887353,4.214718 -4.212353,4.214718 -2.325,0 -4.212353,-1.888413 -4.212353,-4.214718 0,-2.326306 1.887353,-4.214719 4.212353,-4.214719 2.338676,0 4.212353,1.888413 4.212353,4.214719 z"
           id="path404"
           inkscape:connector-curvature="0" />
      </g>
      <g
         transform="translate(261.22059)"
         id="g412"
         style="fill-rule:nonzero">
        <path
           d="M 20.842941,0.30105132 1.9694118,6.5957608 C 1.1351471,6.8694438 0.68382353,7.7725978 0.95735294,8.607331 L 5.2927941,21.607274 c 0.2735294,0.834734 1.1761765,1.286311 2.0104412,1.012628 l 5.7304417,-1.915781 c 0.533382,-0.177894 1.135147,-0.05474 1.559117,0.314735 l 3.788382,3.366301 1.012059,-4.967347 c 0.109412,-0.56105 0.519706,-1.012627 1.053088,-1.190521 l 5.730442,-1.915781 c 0.834264,-0.273683 1.285588,-1.176837 1.012059,-2.01157 L 22.853382,1.2999943 C 22.579853,0.47894529 21.677206,0.0273683 20.842941,0.30105132 Z"
           id="path408"
           inkscape:connector-curvature="0"
           style="fill:#a499f5" />
        <path
           d="M 15.673235,16.872558 9.9154412,14.395727 c -1.6275,-0.697892 -2.3797059,-2.586305 -1.6822059,-4.228403 0.6975,-1.6284137 2.5848527,-2.381042 4.2260297,-1.6831503 l 0.6975,0.3010513 0.492353,-0.7799966 c 0.943676,-1.5052566 2.926764,-1.9568336 4.431176,-1.0126272 1.504412,0.9442064 1.955735,2.9284083 1.012059,4.4336648 z"
           id="path410"
           inkscape:connector-curvature="0"
           style="fill:#c1bdf0" />
      </g>
      <g
         transform="translate(4.102941,166.94664)"
         id="g418"
         style="fill-rule:nonzero">
        <path
           d="M 20.131765,0.56105019 1.2582353,6.8557597 C 0.42397059,7.1294427 -0.02735294,8.0325967 0.24617647,8.8673299 L 4.5816176,21.867273 c 0.2735295,0.834734 1.1761765,1.286311 2.0104412,1.012628 L 12.3225,20.964119 c 0.533382,-0.177894 1.135147,-0.05474 1.559118,0.314736 L 17.67,24.645156 18.682059,19.677809 c 0.109412,-0.56105 0.519706,-1.012627 1.053088,-1.190521 l 5.730441,-1.915781 c 0.834265,-0.273683 1.285588,-1.176837 1.012059,-2.01157 L 22.142206,1.5599932 C 21.868676,0.73894416 20.966029,0.28736717 20.131765,0.56105019 Z"
           id="path414"
           inkscape:connector-curvature="0"
           style="fill:#b5acfa" />
        <path
           d="M 14.962059,17.132557 9.2042647,14.655726 c -1.6275,-0.697892 -2.3797059,-2.586305 -1.6822059,-4.228403 0.6975,-1.6284139 2.5848532,-2.3810422 4.2260292,-1.6831505 l 0.6975,0.3010514 0.492353,-0.7799966 c 0.943677,-1.5052567 2.926765,-1.9568337 4.431177,-1.0126272 1.504411,0.9442064 1.955735,2.9284079 1.012058,4.4336649 z"
           id="path416"
           inkscape:connector-curvature="0"
           style="fill:#d0cafa" />
      </g>
      <g
         transform="translate(454.05882,72.526001)"
         id="g424"
         style="fill-rule:nonzero">
        <path
           d="M 25.205735,5.4873446 6.0039706,0.23263057 C 5.1560294,0 4.2807353,0.50631359 4.0482353,1.354731 l -3.61058824,13.21889 c -0.2325,0.848417 0.27352941,1.724203 1.12147054,1.956833 l 5.8261765,1.587362 c 0.5470588,0.150526 0.9710294,0.588418 1.1214706,1.135785 l 1.2855882,4.898926 3.5969121,-3.55788 c 0.410294,-0.39684 0.998382,-0.56105 1.545441,-0.410524 l 5.826176,1.587361 c 0.847941,0.232631 1.723236,-0.273683 1.955736,-1.1221 L 26.327206,7.430494 C 26.546029,6.5957608 26.053677,5.7199751 25.205735,5.4873446 Z"
           id="path420"
           inkscape:connector-curvature="0"
           style="fill:#afaef2" />
        <path
           d="M 11.707059,16.407297 8.2879412,11.152583 C 7.3169118,9.6610107 7.7408823,7.6768087 9.2316177,6.705234 10.722353,5.7336593 12.705441,6.157868 13.676471,7.6494404 l 0.410294,0.6431552 0.847941,-0.3831563 c 1.613823,-0.72526 3.514853,0 4.253382,1.6147299 0.724853,1.6147298 0,3.5168268 -1.613823,4.2557708 z"
           id="path422"
           inkscape:connector-curvature="0"
           style="fill:#d3d1f5" />
      </g>
    </g>
  </g>
</svg>
